PathFileType	4	(X/Y/Z)	\\Move.snu.ac.kr\motion\Animal\091204_091205_Bird\091205_bird\Project 2\Capture day 2\Session 1\pigeon_007_new_after_delete_unlabel.trc
DataRate	CameraRate	NumFrames	NumMarkers	Units	OrigDataRate	OrigDataStartFrame	OrigNumFrames
240.0	240.0	20	14	mm	240.0	125	5319
Frame#	Time	14MarkersBird:Head			14MarkersBird:C_back			14MarkersBird:Spine			14MarkersBird:L-shoulder			14MarkersBird:L-elbow			14MarkersBird:L-wrist			14MarkersBird:L-hand			14MarkersBird:R-shoulder			14MarkersBird:R-elbow			14MarkersBird:R-Wrist			14MarkersBird:R-hand			14MarkersBird:C_Tail			14MarkersBird:L-Tale			14MarkersBird:R-Tale			
		X1	Y1	Z1	X2	Y2	Z2	X3	Y3	Z3	X4	Y4	Z4	X5	Y5	Z5	X6	Y6	Z6	X7	Y7	Z7	X8	Y8	Z8	X9	Y9	Z9	X10	Y10	Z10	X11	Y11	Z11	X12	Y12	Z12	X13	Y13	Z13	X14	Y14	Z14	

2679	11.158	-1301.31165	951.45648	-1540.96106	-1357.29443	946.35419	-1549.90466	-1410.71484	941.31677	-1553.45093	-1324.33643	935.75647	-1568.75989	-1339.86292	941.42401	-1592.32568	-1310.48145	925.79651	-1619.34583	-1299.02332	924.17847	-1644.89343	-1327.81775	939.73907	-1519.52905	-1344.44226	949.28693	-1500.40405	-1320.45703	933.65350	-1468.21558	-1308.64087	933.65808	-1435.69482	-1506.60339	860.76160	-1572.97559	-1429.08655	888.72009	-1644.05237	-1467.05029	898.68988	-1460.48669	
2680	11.163	-1288.70435	950.39429	-1539.86646	-1344.88123	946.47375	-1548.67480	-1398.32373	942.63940	-1552.18469	-1311.64954	934.80676	-1567.64795	-1325.76929	934.65167	-1591.97437	-1293.90173	913.01135	-1610.67944	-1279.79858	903.89893	-1632.43518	-1314.46887	939.09058	-1518.05908	-1329.06201	942.14893	-1497.37415	-1302.69739	919.47345	-1473.24976	-1286.14526	909.46509	-1444.92798	-1493.16809	859.24170	-1569.73914	-1418.85767	885.49109	-1640.96118	-1455.20776	897.80182	-1459.92627	
2681	11.167	-1275.89990	949.47064	-1538.94788	-1332.31030	946.80444	-1547.38904	-1385.62280	943.40277	-1550.65588	-1298.81970	934.28149	-1566.48547	-1312.55835	928.91266	-1590.35071	-1278.68018	904.15570	-1599.91284	-1262.97864	888.59381	-1615.42786	-1300.42969	938.70752	-1516.46228	-1314.57971	935.82721	-1495.99414	-1286.06580	908.97455	-1480.97949	-1265.63354	890.51874	-1459.68091	-1480.11743	858.38593	-1566.07422	-1409.14099	882.35742	-1637.57336	-1442.95239	897.13837	-1459.16956	
2682	11.171	-1262.92444	948.61145	-1538.17456	-1319.48560	947.16852	-1546.05994	-1372.64417	942.82965	-1549.25098	-1285.83875	934.07208	-1565.29028	-1300.50732	924.61652	-1588.04102	-1264.71887	900.19281	-1589.33923	-1248.55493	880.26245	-1596.98450	-1286.32227	938.52502	-1514.93726	-1301.43860	930.96582	-1495.61060	-1270.70398	903.54724	-1489.21716	-1247.26953	879.02423	-1476.63281	-1467.30176	857.90454	-1562.17847	-1399.58618	879.41760	-1634.11902	-1430.12976	896.50397	-1458.08020	
2683	11.175	-1249.64111	947.53333	-1537.26709	-1306.29199	947.35748	-1544.66492	-1359.50696	942.28735	-1547.77124	-1272.72510	933.97327	-1564.09900	-1289.63062	922.08008	-1585.74292	-1251.81226	900.97247	-1581.33691	-1235.92432	879.26807	-1580.97693	-1273.25110	938.08044	-1513.87939	-1289.71411	928.01105	-1495.44629	-1256.62000	903.43335	-1495.57043	-1230.87134	875.39911	-1491.58374	-1454.51160	857.56403	-1558.26550	-1389.70825	876.81549	-1630.85950	-1416.62744	895.79639	-1456.56335	
2684	11.179	-1235.82288	945.96381	-1535.94238	-1292.65759	947.13544	-1543.19263	-1346.02783	941.33441	-1546.30298	-1259.49829	933.73303	-1562.92993	-1279.67847	921.59912	-1583.99585	-1239.83301	905.33960	-1577.44250	-1224.26721	883.89789	-1570.76843	-1261.12549	937.42090	-1513.26147	-1279.27930	927.25226	-1494.91589	-1243.80554	907.59137	-1498.38110	-1216.31079	877.94202	-1500.86841	-1441.57764	857.22308	-1554.48340	-1379.06934	874.68091	-1628.00012	-1402.38586	894.86859	-1454.67163	
2685	11.183	-1221.49341	944.02435	-1534.28674	-1278.61072	946.32391	-1541.65918	-1332.21155	940.14972	-1544.90283	-1246.14429	933.16333	-1561.78394	-1270.16589	923.34802	-1582.84216	-1228.61084	911.86322	-1577.80688	-1213.06909	891.20514	-1567.97693	-1248.91187	935.89105	-1512.66724	-1269.89709	928.80261	-1493.93677	-1232.14465	914.37244	-1497.29529	-1205.37280	883.60162	-1503.03809	-1428.40100	856.75018	-1550.94800	-1367.43213	873.06873	-1625.67798	-1387.45715	893.58160	-1452.59485	
2686	11.188	-1207.04907	942.14459	-1532.67639	-1264.24854	944.86377	-1540.07068	-1318.12805	938.80743	-1543.58191	-1232.58118	932.24103	-1560.61987	-1260.48633	927.17114	-1581.65039	-1217.95630	919.57739	-1581.20374	-1202.63293	898.72919	-1572.11621	-1236.03699	934.46179	-1511.87354	-1261.00159	932.44757	-1493.14099	-1221.35730	922.47852	-1493.20532	-1194.81738	891.47522	-1497.42139	-1414.89368	855.93207	-1547.82336	-1354.76636	871.95459	-1623.97961	-1372.10828	892.07941	-1450.52869	
2687	11.192	-1192.78687	940.56494	-1531.30139	-1249.68103	942.81903	-1538.42920	-1303.87585	937.30273	-1542.34241	-1218.72778	931.08405	-1559.36377	-1250.14270	932.39453	-1579.33594	-1207.81323	928.20502	-1585.51196	-1194.08911	905.88934	-1581.04126	-1222.57263	933.32306	-1511.01074	-1251.64819	937.52271	-1493.64453	-1211.12939	931.40704	-1487.83569	-1186.48303	898.80750	-1485.35046	-1400.95227	854.53351	-1545.31677	-1341.14587	871.25140	-1622.95288	-1356.77393	890.84460	-1448.54858	
2688	11.196	-1178.69519	939.19043	-1530.03943	-1234.99890	940.49420	-1536.75439	-1289.65369	935.91833	-1541.16248	-1204.63123	929.79883	-1557.93591	-1238.90479	937.87921	-1574.99170	-1198.24780	937.67871	-1588.50403	-1188.69580	913.91907	-1591.58801	-1208.86145	932.49695	-1510.40295	-1240.90247	942.95398	-1496.35059	-1201.26721	941.00232	-1483.28394	-1185.04688	908.67542	-1472.56323	-1386.55640	852.48755	-1543.56372	-1326.66992	870.84760	-1622.57349	-1341.84546	890.35181	-1446.64209	
2689	11.200	-1164.67273	937.87781	-1528.74243	-1220.34717	937.55096	-1535.02148	-1275.07202	933.71722	-1539.92017	-1190.50293	928.39423	-1556.31812	-1226.75684	942.33978	-1568.51624	-1189.26221	947.52618	-1588.58423	-1186.52124	924.58514	-1600.14258	-1195.04456	931.94910	-1510.24695	-1228.35559	947.56659	-1501.34924	-1191.53760	950.75726	-1481.39929	-1182.90527	920.86462	-1462.65771	-1371.91418	850.03772	-1542.59338	-1311.50378	870.64410	-1622.70776	-1327.49561	890.67749	-1444.82922	
2690	11.204	-1150.71484	936.53436	-1527.35474	-1205.55212	935.12598	-1533.51843	-1260.63708	931.71088	-1539.04590	-1176.55518	926.82410	-1554.57861	-1213.71008	944.85370	-1560.73511	-1180.48816	956.89783	-1585.19104	-1185.65747	938.54773	-1603.71680	-1181.11572	931.47467	-1510.46021	-1214.20984	950.43811	-1507.84802	-1181.49927	959.74677	-1482.99744	-1182.27673	936.52570	-1456.76404	-1357.44250	847.65790	-1542.39539	-1295.91724	870.58392	-1623.14783	-1313.67664	891.43433	-1443.21008	
2691	11.208	-1136.85498	935.13574	-1525.93042	-1190.93481	932.80115	-1532.12854	-1246.30176	929.61328	-1538.15808	-1162.87842	925.04858	-1552.84521	-1199.57739	945.44165	-1552.87402	-1171.21191	964.95001	-1578.91357	-1183.38428	954.72357	-1601.06152	-1167.17773	930.73273	-1510.73608	-1199.04211	951.19159	-1514.60913	-1170.75562	967.16583	-1487.52344	-1181.46606	954.92969	-1457.16077	-1343.53943	845.79437	-1542.98779	-1280.22742	870.66553	-1623.72290	-1300.26001	892.06616	-1441.89392	
2692	11.212	-1123.12769	933.65564	-1524.55994	-1176.69421	930.63794	-1530.87317	-1232.19397	927.35565	-1537.26843	-1149.44568	923.03363	-1551.20972	-1184.06116	944.98077	-1545.95349	-1160.73425	971.16779	-1571.16467	-1177.83630	970.91492	-1592.56763	-1153.39636	929.47266	-1510.72034	-1183.36609	950.09900	-1520.44812	-1159.12329	972.79724	-1493.57813	-1178.39099	973.89307	-1464.56982	-1330.36890	844.64410	-1544.36450	-1264.64075	870.89813	-1624.31311	-1287.11133	892.18542	-1440.90613	
2693	11.217	-1109.47693	932.05322	-1523.31458	-1162.77258	928.59119	-1529.73975	-1218.27649	924.98438	-1536.37292	-1136.08826	920.84363	-1549.75684	-1167.06812	944.52826	-1540.47803	-1148.64575	975.37689	-1563.67395	-1168.41150	984.66022	-1579.99622	-1139.80273	927.73499	-1510.19934	-1167.40295	948.01221	-1524.61023	-1146.53540	976.86823	-1499.52075	-1171.42700	990.67218	-1477.34460	-1317.83948	844.15375	-1546.37976	-1249.13953	871.21368	-1624.84290	-1274.06177	891.59277	-1440.12463	
2694	11.221	-1095.82996	930.28241	-1522.19006	-1149.11243	926.61560	-1528.71533	-1204.51221	922.54602	-1535.46729	-1122.60754	918.60260	-1548.54883	-1149.10693	944.58917	-1536.58167	-1134.99146	977.60590	-1558.05457	-1155.31226	994.14771	-1566.54138	-1126.26563	925.75629	-1509.11169	-1151.06409	945.98444	-1526.76697	-1133.12402	979.55029	-1503.64453	-1159.98608	1003.36047	-1491.49109	-1305.69055	844.10773	-1548.70984	-1233.56458	871.49335	-1625.26428	-1260.89246	890.16516	-1439.33887	
2695	11.225	-1082.20264	928.23199	-1521.12231	-1135.65576	924.66589	-1527.78723	-1190.86377	920.08704	-1534.54724	-1108.93384	916.39050	-1547.58167	-1131.35779	944.73798	-1534.39001	-1120.25854	977.96973	-1555.48364	-1139.12732	999.01624	-1556.26880	-1112.69287	923.68323	-1507.51782	-1134.44495	944.67664	-1526.71692	-1119.34497	980.81177	-1504.38074	-1144.66797	1011.55872	-1501.73267	-1293.59204	844.21106	-1550.91846	-1217.78296	871.67511	-1625.52673	-1247.41565	887.86694	-1438.36853	
2696	11.229	-1068.70032	925.77441	-1520.02014	-1122.34497	922.69690	-1526.94250	-1177.29407	917.65387	-1533.60889	-1095.09375	914.23596	-1546.77063	-1115.04187	943.92212	-1534.15881	-1105.04724	976.48236	-1556.52246	-1120.78662	1000.17108	-1552.75037	-1099.07886	921.52307	-1505.60706	-1118.27649	944.00366	-1524.24414	-1105.82495	980.42523	-1500.86963	-1127.15723	1015.82709	-1503.70801	-1281.23694	844.12878	-1552.57275	-1201.82715	871.76190	-1625.56201	-1233.56018	884.84564	-1437.15833	
2697	11.233	-1055.28528	923.04242	-1518.86108	-1109.12231	920.66321	-1526.16846	-1163.76575	915.29303	-1532.64771	-1081.11853	912.12396	-1545.98108	-1100.87708	941.41370	-1536.04956	-1089.77747	972.94135	-1561.09131	-1101.63647	998.56531	-1557.48413	-1085.38342	919.25208	-1503.62427	-1103.49707	943.35052	-1519.35791	-1092.88293	977.99091	-1493.33801	-1109.51794	1016.33215	-1496.05103	-1268.41040	843.55646	-1553.35071	-1185.94019	871.73419	-1625.32214	-1219.32031	881.37012	-1435.76892	
2698	11.238	-1041.76721	920.38385	-1517.70483	-1095.93005	918.51971	-1525.45215	-1150.24182	913.05103	-1531.65979	-1067.02710	909.97528	-1545.09814	-1088.14380	937.64136	-1539.82642	-1074.54150	967.07385	-1568.49097	-1082.78906	993.97113	-1569.34570	-1071.49390	916.81415	-1501.66418	-1090.21094	942.09601	-1512.67004	-1080.18713	973.13599	-1482.87805	-1092.94189	1012.41766	-1480.57983	-1255.06555	842.32281	-1553.11230	-1170.46228	871.43494	-1624.81714	-1204.73206	877.65997	-1434.31104	
